<?xml version="1.0" encoding="UTF-8" standalone="no"?>
<svg
   version="1.0"
   width="1280.000000pt"
   height="1280.000000pt"
   viewBox="0 0 1280.000000 1280.000000"
   preserveAspectRatio="xMidYMid meet"
   id="pisvg"
   xmlns="http://www.w3.org/2000/svg"
   xmlns:svg="http://www.w3.org/2000/svg">
  <g
     transform="translate(0.000000,1280.000000) scale(0.100000,-0.100000)"
     fill="#000000"
     stroke="none"
     id="g1">
    <path
       d="M4225 11533 c-100 -6 -311 -23 -335 -27 -14 -3 -59 -10 -100 -16 -408 -60 -813 -229 -1110 -465 -98 -77 -307 -287 -393 -395 -37 -47 -74 -93 -82 -102 -7 -9 -22 -29 -32 -45 -9 -15 -20 -30 -23 -33 -16 -13 -139 -202 -225 -345 -94 -157 -256 -467 -330 -635 -21 -47 -48 -108 -60 -136 -71 -158 -234 -584 -250 -654 -2 -8 -8 -37 -14 -63 -27 -117 -16 -290 23 -366 40 -76 162 -100 372 -73 118 16 204 44 274 92 61 41 136 119 179 185 14 22 28 42 31 45 3 3 19 25 35 50 17 25 34 50 38 55 4 6 34 46 65 90 101 143 233 300 336 398 289 278 518 397 871 452 58 10 122 14 328 25 184 10 214 9 256 -5 106 -35 121 -98 96 -410 -3 -38 -7 -104 -10 -145 -17 -256 -42 -587 -50 -670 -20 -206 -26 -262 -39 -400 -19 -190 -34 -332 -41 -385 -3 -22 -10 -76 -15 -120 -6 -44 -17 -132 -25 -195 -8 -63 -19 -142 -24 -175 -5 -33 -14 -94 -20 -135 -15 -102 -38 -247 -57 -355 -9 -49 -18 -101 -20 -115 -5 -26 -42 -220 -50 -255 -8 -40 -24 -120 -28 -140 -24 -118 -69 -303 -131 -535 -146 -551 -395 -1063 -780 -1610 -25 -36 -53 -76 -63 -90 -9 -14 -19 -27 -22 -30 -17 -17 -182 -264 -250 -375 -152 -247 -219 -413 -276 -680 -27 -127 -26 -365 2 -505 64 -314 256 -557 538 -685 244 -110 548 -108 857 5 74 26 235 110 272 140 152 125 200 168 241 219 27 33 52 61 55 61 4 0 15 13 24 30 10 16 23 35 30 42 7 7 26 33 43 58 184 265 381 726 493 1154 89 340 192 880 255 1346 70 507 116 894 162 1355 2 28 6 66 9 85 5 43 11 101 30 310 8 91 17 188 20 215 5 52 21 236 30 340 3 33 10 112 15 175 9 106 63 792 75 955 3 39 7 99 10 135 7 94 14 192 20 295 3 50 8 119 10 155 3 36 10 135 15 220 37 580 40 602 75 657 9 14 38 35 63 46 47 22 49 22 963 25 862 2 919 2 965 -15 33 -13 56 -30 72 -53 23 -33 24 -41 18 -140 -3 -58 -8 -121 -11 -140 -2 -19 -9 -82 -15 -140 -5 -58 -14 -150 -20 -205 -24 -227 -44 -430 -55 -550 -3 -27 -7 -72 -10 -100 -14 -139 -14 -137 -45 -465 -30 -318 -48 -523 -55 -615 -2 -33 -7 -85 -10 -115 -2 -30 -7 -86 -10 -125 -3 -38 -7 -92 -10 -120 -3 -27 -7 -84 -10 -125 -20 -286 -26 -373 -35 -512 -5 -86 -11 -190 -14 -230 -3 -40 -8 -127 -11 -193 -3 -66 -10 -219 -16 -340 -20 -390 6 -1130 52 -1530 6 -49 12 -107 15 -127 2 -21 9 -68 15 -105 6 -38 12 -79 14 -93 3 -31 32 -192 44 -245 111 -505 245 -828 465 -1115 27 -36 56 -72 65 -81 9 -8 32 -34 51 -58 61 -75 230 -220 345 -297 333 -222 693 -309 1115 -270 217 21 480 98 697 206 120 59 284 160 348 212 229 190 372 331 457 451 12 18 30 41 40 51 10 11 18 23 18 27 0 4 6 14 13 21 62 66 217 356 300 563 157 394 304 1011 333 1401 20 271 -119 446 -361 453 -165 5 -295 -61 -373 -191 -17 -30 -52 -107 -77 -171 -109 -290 -191 -439 -303 -553 -85 -88 -95 -96 -167 -140 -229 -138 -516 -160 -774 -57 -70 28 -167 83 -216 123 -47 39 -148 142 -175 178 -14 18 -33 43 -43 54 -33 40 -126 243 -156 343 -59 191 -96 423 -109 670 -18 350 -2 1241 33 1805 15 249 36 562 40 615 3 33 7 85 10 115 39 461 86 924 130 1275 71 571 75 585 180 632 37 17 101 18 915 23 771 4 883 7 940 22 36 9 107 24 158 33 52 9 118 27 148 40 101 45 175 134 211 254 14 49 17 128 20 596 3 360 1 568 -7 625 -20 157 -96 273 -216 330 -132 64 90 60 -3744 58 -1917 -1 -3507 -3 -3535 -5z"
       id="path1" />
  </g>
  <path
     style="fill:#86efac;stroke-width:2.12008"
     d="m 1215.8675,1509.3346 c -2.9151,-0.5198 -11.0244,-1.9378 -18.0207,-3.1512 -30.278,-5.2511 -61.6325,-19.1635 -89.1184,-39.543 -74.6745,-55.3678 -112.08652,-139.2081 -127.03887,-284.6942 -13.57869,-132.1204 -7.47747,-269.78335 27.55847,-621.80732 9.3265,-93.70802 10.719,-114.45248 8.1348,-121.18676 -3.6257,-9.44855 -6.2918,-9.63535 -137.51125,-9.63535 -132.86351,0 -135.4527,0.19282 -140.96774,10.49772 -3.22078,6.01811 -5.48989,28.87088 -10.64082,107.16688 -21.89422,332.7997 -49.65984,575.41243 -80.55354,703.86753 -11.74259,48.8252 -28.65025,96.4768 -47.80312,134.7253 -24.33372,48.5947 -59.13216,86.9746 -94.8559,104.6183 -24.98768,12.3413 -49.40238,18.2122 -75.81825,18.2316 -37.59984,0.028 -63.7395,-10.4763 -89.20049,-35.8441 -26.79454,-26.6964 -37.91989,-55.4214 -37.91989,-97.9068 0,-49.568 13.92631,-87.3908 54.17869,-147.1452 11.78226,-17.4907 30.40958,-45.1821 41.39405,-61.5364 48.81766,-72.6826 75.67587,-132.5634 96.97017,-216.1967 21.70925,-85.26308 37.17177,-179.53701 50.07273,-305.28972 7.12329,-69.4346 14.46158,-172.85292 13.50239,-190.28848 -1.11262,-20.22404 -4.79495,-23.56351 -27.09969,-24.57643 -23.68514,-1.0756 -67.97884,3.00936 -88.03283,8.11878 -50.86068,12.95843 -95.90962,49.0397 -141.48413,113.31957 -10.80319,15.23718 -25.94232,34.06532 -33.64252,41.8403 -17.01242,17.17761 -26.78035,20.85527 -59.1425,22.26733 -27.574,1.20315 -34.00157,-1.68067 -37.85503,-16.98413 -5.80993,-23.07333 -2.73054,-40.12473 16.1419,-89.38224 31.77699,-82.93864 72.80727,-160.14554 111.54151,-209.8882 17.59537,-22.59606 56.66874,-60.21927 76.02756,-73.20592 34.38728,-23.06831 77.93687,-40.39554 122.90635,-48.9012 20.94345,-3.9613 35.52687,-4.74348 116.17353,-6.231 113.93619,-2.10153 799.95452,-2.27105 864.03462,-0.21351 46.0392,1.47827 46.8942,1.58959 56.8017,7.39574 11.49,6.73359 21.4062,19.26155 25.2569,31.90913 1.9447,6.38736 2.5376,29.8299 2.2419,88.65143 -0.3836,76.32484 -0.6061,80.42957 -4.8838,90.10353 -9.1305,20.6482 -20.061,27.69873 -53.0165,34.19744 -20.2194,3.98718 -32.9548,4.51701 -138.8655,5.77733 -138.1158,1.64358 -130.5173,0.29351 -136.3329,24.22303 -4.5333,18.6533 -18.8668,143.038 -25.7746,223.66874 -12.6133,147.22684 -16.4055,338.15918 -7.769,391.15528 4.9756,30.5316 11.2484,52.0091 21.5773,73.878 17.1814,36.3775 51.7903,65.1362 87.2438,72.4963 17.3438,3.6006 49.6047,1.5753 64.2806,-4.0355 38.2584,-14.6266 59.065,-39.5497 82.5458,-98.8771 3.692,-9.3284 9.1031,-21.0555 12.0246,-26.0604 19.6945,-33.7382 73.2795,-33.1678 90.0804,0.9589 4.297,8.7282 5.0027,13.1111 4.7242,29.3417 -0.8803,51.309 -27.6241,157.0671 -53.6954,212.3382 -20.5123,43.4862 -39.7486,70.3662 -72.4852,101.2882 -42.555,40.1961 -88.4449,64.8052 -142.7425,76.5474 -14.7058,3.1803 -62.9417,5.8163 -73.1429,3.9972 z"
     id="path2"
     transform="scale(0.75)" />
</svg>
